<?xml version="1.0" encoding="UTF-8"?>
<svg xmlns="http://www.w3.org/2000/svg" viewBox="0 0 1000 1000" width="1000" height="1000">
<path d="M0.23 0.23C333.41 0.23 666.59 0.23 999.77 0.23C999.77 333.41 999.77 666.59 999.77 999.77C666.59 999.77 333.41 999.77 0.23 999.77C0.23 666.59 0.23 333.41 0.23 0.23ZM298.38 368C255.55 368 212.72 368 169.9 368C169.9 374.05 169.9 380.09 169.9 386.14C212.72 386.14 255.55 386.14 298.38 386.14C298.38 380.09 298.38 374.05 298.38 368ZM500.31 386.14C498.35 382.11 493.11 379.19 489.13 377.06C479.56 371.93 468.98 368.08 457.99 367.99C426.64 367.75 395.28 367.99 363.93 367.99C353.58 367.99 343.23 367.99 332.88 367.99C327.64 367.99 321.95 367.4 316.88 368.49C316.88 374.38 316.88 380.26 316.88 386.14C378.02 386.14 439.16 386.14 500.31 386.14ZM642.36 368C607.42 368 572.47 368 537.52 368C537.52 374.05 537.52 380.09 537.52 386.14C574.35 386.14 611.18 386.14 648.01 386.14C646.13 380.09 644.25 374.05 642.36 368ZM727.4 367.99C725.4 374.04 723.41 380.09 721.41 386.14C757.9 386.14 794.39 386.14 830.89 386.14C830.89 380.09 830.89 374.04 830.89 367.99C796.39 367.99 761.89 367.99 727.4 367.99ZM298.38 403.87C294.15 402.44 288.98 403.15 284.47 403.15C275.34 403.15 266.21 403.15 257.08 403.15C237.9 403.15 218.72 403.15 199.54 403.15C189.76 403.15 179.68 402.48 169.94 403.36C169.94 409.29 169.94 415.23 169.94 421.17C212.76 421.17 255.57 421.17 298.38 421.17C298.38 415.4 298.38 409.64 298.38 403.87ZM514.61 403.16C448.72 403.16 382.82 403.16 316.93 403.16C316.93 409.16 316.93 415.16 316.93 421.17C384.94 421.17 452.94 421.17 520.95 421.17C518.84 415.16 516.72 409.16 514.61 403.16ZM654.34 403.16C615.68 403.16 577.02 403.16 538.36 403.16C536.68 408.72 537.48 415.3 537.54 421.16C578.6 421.16 619.67 421.16 660.73 421.16C658.6 415.16 656.47 409.16 654.34 403.16ZM830.89 403.16C792.41 403.16 753.94 403.16 715.46 403.16C713.27 409.16 711.08 415.16 708.89 421.16C749.55 421.16 790.22 421.16 830.89 421.16C830.89 415.16 830.89 409.16 830.89 403.16ZM206.45 438.32C206.45 444.44 206.45 450.56 206.45 456.68C224.79 456.68 243.13 456.68 261.47 456.68C261.47 450.56 261.47 444.44 261.47 438.32C243.13 438.32 224.79 438.32 206.45 438.32ZM353.63 438.32C353.63 444.44 353.63 450.56 353.63 456.67C371.97 456.67 390.31 456.67 408.66 456.67C408.66 450.56 408.66 444.44 408.66 438.32C390.31 438.32 371.97 438.32 353.63 438.32ZM464.02 438.32C464.02 444.44 464.02 450.56 464.02 456.68C482.62 456.68 501.21 456.68 519.81 456.68C521.7 450.94 523.17 444.38 522.7 438.32C503.14 438.32 483.58 438.32 464.02 438.32ZM666.21 438.31C635.59 438.31 604.96 438.31 574.34 438.31C574.34 444.44 574.34 450.56 574.34 456.69C607.09 456.69 639.85 456.69 672.6 456.69C670.47 450.56 668.34 444.44 666.21 438.31ZM702.74 438.31C700.75 444.44 698.75 450.56 696.76 456.68C729.54 456.68 762.31 456.68 795.09 456.68C795.09 450.56 795.09 444.44 795.09 438.31C764.31 438.31 733.52 438.31 702.74 438.31ZM260.73 473.5C242.63 473.5 224.54 473.5 206.44 473.5C206.44 479.65 206.44 485.81 206.44 491.96C224.6 491.96 242.77 491.96 260.93 491.96C262.03 486.34 262.26 478.99 260.73 473.5ZM511.44 474.43C508.23 472.54 502.92 473.49 499.09 473.49C489.65 473.49 480.21 473.49 470.78 473.49C444.29 473.49 417.81 473.49 391.32 473.49C383.11 473.49 374.89 473.49 366.67 473.49C362.38 473.49 357.78 472.99 353.65 474.04C353.65 479.96 353.65 485.87 353.65 491.78C365.81 492.6 378.21 491.97 390.41 491.97C412.94 491.97 435.46 491.97 457.99 491.97C466.51 491.97 475.04 491.97 483.56 491.97C487 491.97 491.64 492.79 494.91 491.67C500.49 489.75 508.32 479.32 511.44 474.43ZM679 473.5C644.12 473.5 609.25 473.5 574.38 473.5C574.38 479.65 574.38 485.81 574.38 491.96C592.58 491.96 610.78 491.96 628.98 491.96C629.87 487.73 628.43 481.92 630.59 478.39C632.12 482.91 633.64 487.44 635.16 491.96C668.08 491.96 701 491.96 733.92 491.96C735.88 487.21 737.85 482.45 739.81 477.7C739.81 482.45 739.81 487.2 739.81 491.96C758.23 491.96 776.65 491.96 795.07 491.96C795.07 486.04 795.07 480.13 795.07 474.21C788.91 472.01 769.74 473.49 762.1 473.49C746.58 473.49 731.05 473.49 715.53 473.49C707.39 473.49 698.96 472.88 690.87 473.68C688.74 478.72 686.61 483.76 684.47 488.8C682.65 483.7 680.82 478.6 679 473.5ZM261.47 508.87C243.11 508.87 224.75 508.87 206.4 508.87C206.4 514.91 206.4 520.96 206.4 527C224.75 527 243.11 527 261.47 527C261.47 520.96 261.47 514.91 261.47 508.87ZM511.75 527.02C508.83 522.28 499.93 510.29 494.36 508.97C489.72 507.88 483.76 508.85 479 508.85C468.04 508.85 457.08 508.85 446.12 508.85C426.03 508.85 405.94 508.85 385.84 508.85C375.18 508.85 364.23 508.15 353.62 509.13C353.62 515.09 353.62 521.06 353.62 527.02C406.33 527.02 459.04 527.02 511.75 527.02ZM629.56 508.87C611.15 508.87 592.74 508.87 574.33 508.87C574.33 514.91 574.33 520.96 574.33 527C592.74 527 611.15 527 629.56 527C629.56 520.96 629.56 514.91 629.56 508.87ZM727.77 508.86C698.98 508.86 670.19 508.86 641.39 508.86C643.27 514.91 645.15 520.96 647.03 527.02C671.99 527.02 696.96 527.02 721.92 527.02C723.87 520.96 725.82 514.91 727.77 508.86ZM795.08 508.87C776.69 508.87 758.3 508.87 739.9 508.87C739.9 514.92 739.9 520.97 739.9 527.01C758.3 527.01 776.69 527.01 795.08 527.01C795.08 520.97 795.08 514.92 795.08 508.87ZM261.46 544.13C243.11 544.13 224.76 544.13 206.41 544.13C206.41 550.22 206.41 556.31 206.41 562.4C224.76 562.4 243.11 562.4 261.46 562.4C261.46 556.31 261.46 550.22 261.46 544.13ZM353.64 544.12C353.64 550.22 353.64 556.31 353.64 562.41C371.98 562.41 390.32 562.41 408.66 562.41C408.66 556.31 408.66 550.22 408.66 544.12C390.32 544.12 371.98 544.12 353.64 544.12ZM464.02 544.12C464.02 550.18 464.02 556.24 464.02 562.3C477.5 562.85 491.07 562.42 504.57 562.42C510.04 562.42 517.97 563.81 522.83 561.5C521.89 555.71 520.94 549.91 520 544.12C501.34 544.12 482.68 544.12 464.02 544.12ZM629.56 544.13C611.15 544.13 592.75 544.13 574.34 544.13C574.34 550.22 574.34 556.31 574.34 562.4C592.75 562.4 611.15 562.4 629.56 562.4C629.56 556.31 629.56 550.22 629.56 544.13ZM716.15 544.13C695.15 544.13 674.14 544.13 653.14 544.13C655.26 550.22 657.37 556.31 659.48 562.4C676.34 562.4 693.19 562.4 710.05 562.4C712.08 556.31 714.11 550.22 716.15 544.13ZM739.91 544.12C739.91 550.21 739.91 556.31 739.91 562.4C758.3 562.4 776.69 562.4 795.08 562.4C795.08 556.31 795.08 550.21 795.08 544.12C776.69 544.12 758.3 544.12 739.91 544.12ZM298.38 579.08C255.56 579.08 212.74 579.08 169.92 579.08C169.92 585.21 169.92 591.34 169.92 597.48C179.73 598.16 189.7 597.7 199.54 597.7C217.2 597.7 234.86 597.7 252.51 597.7C262.25 597.7 271.99 597.7 281.74 597.7C287.24 597.7 293.07 598.28 298.38 596.98C298.38 591.01 298.38 585.05 298.38 579.08ZM520.93 579.08C452.92 579.08 384.91 579.08 316.9 579.08C316.9 585.28 316.9 591.49 316.9 597.7C382.81 597.7 448.71 597.7 514.61 597.7C517.15 591.58 520.11 585.74 520.93 579.08ZM629.38 579.08C598.82 579.08 568.26 579.08 537.7 579.08C537.34 585.02 536.6 592.07 538.36 597.7C568.49 597.7 598.63 597.7 628.77 597.7C630.47 592.05 629.8 585 629.38 579.08ZM704.12 579.1C691.12 579.1 678.11 579.1 665.11 579.1C667.3 585.29 669.5 591.48 671.69 597.67C680.52 597.67 689.35 597.67 698.17 597.67C700.16 591.48 702.14 585.29 704.12 579.1ZM830.89 579.08C800.56 579.08 770.23 579.08 739.89 579.08C739.89 585.28 739.89 591.49 739.89 597.69C770.23 597.69 800.56 597.69 830.89 597.69C830.89 591.49 830.89 585.28 830.89 579.08ZM169.94 614.58C169.94 620.71 169.94 626.84 169.94 632.96C212.75 632.96 255.56 632.96 298.37 632.96C298.37 626.84 298.37 620.71 298.37 614.58C255.56 614.58 212.75 614.58 169.94 614.58ZM316.9 614.58C316.9 620.52 316.9 626.47 316.9 632.42C322.18 633.68 328.3 632.97 333.79 632.97C344.14 632.97 354.49 632.97 364.84 632.97C395.81 632.97 427.05 634.18 457.99 632.92C469.15 632.46 479.86 628.77 489.52 623.31C493.3 621.18 498.05 618.38 500.1 614.58C439.03 614.58 377.96 614.58 316.9 614.58ZM629.58 614.59C598.89 614.59 568.2 614.59 537.52 614.59C537.52 620.71 537.52 626.83 537.52 632.95C568.2 632.95 598.89 632.95 629.58 632.95C629.58 626.83 629.58 620.71 629.58 614.59ZM691.78 614.65C687.07 614.65 682.36 614.65 677.65 614.65C678.24 619.12 680.1 623.34 681.52 627.64C681.91 628.81 682.27 631.42 683.22 632.25C684.03 632.96 684.45 632.66 685.39 632.97C687.52 626.86 689.65 620.75 691.78 614.65ZM739.91 614.58C739.91 620.71 739.91 626.84 739.91 632.96C770.24 632.96 800.56 632.96 830.89 632.96C830.89 626.84 830.89 620.71 830.89 614.58C800.56 614.58 770.24 614.58 739.91 614.58Z" fill="#ffffff" fill-rule="evenodd" stroke="#ffffff" stroke-width="0.25" stroke-linejoin="round"/>
<path d="M298.38 368C298.38 374.05 298.38 380.09 298.38 386.14C255.55 386.14 212.72 386.14 169.9 386.14C169.9 380.09 169.9 374.05 169.9 368C212.72 368 255.55 368 298.38 368ZM500.31 386.14C439.16 386.14 378.02 386.14 316.88 386.14C316.88 380.26 316.88 374.38 316.88 368.49C321.95 367.4 327.64 367.99 332.88 367.99C343.23 367.99 353.58 367.99 363.93 367.99C395.28 367.99 426.64 367.75 457.99 367.99C468.98 368.08 479.56 371.93 489.13 377.06C493.11 379.19 498.35 382.11 500.31 386.14ZM642.36 368C644.25 374.05 646.13 380.09 648.01 386.14C611.18 386.14 574.35 386.14 537.52 386.14C537.52 380.09 537.52 374.05 537.52 368C572.47 368 607.42 368 642.36 368ZM727.4 367.99C761.89 367.99 796.39 367.99 830.89 367.99C830.89 374.04 830.89 380.09 830.89 386.14C794.39 386.14 757.9 386.14 721.41 386.14C723.41 380.09 725.4 374.04 727.4 367.99ZM298.38 403.87C298.38 409.64 298.38 415.4 298.38 421.17C255.57 421.17 212.76 421.17 169.94 421.17C169.94 415.23 169.94 409.29 169.94 403.36C179.68 402.48 189.76 403.15 199.54 403.15C218.72 403.15 237.9 403.15 257.08 403.15C266.21 403.15 275.34 403.15 284.47 403.15C288.98 403.15 294.15 402.44 298.38 403.87ZM514.61 403.16C516.72 409.16 518.84 415.16 520.95 421.17C452.94 421.17 384.94 421.17 316.93 421.17C316.93 415.16 316.93 409.16 316.93 403.16C382.82 403.16 448.72 403.16 514.61 403.16ZM654.34 403.16C656.47 409.16 658.6 415.16 660.73 421.16C619.67 421.16 578.6 421.16 537.54 421.16C537.48 415.3 536.68 408.72 538.36 403.16C577.02 403.16 615.68 403.16 654.34 403.16ZM830.89 403.16C830.89 409.16 830.89 415.16 830.89 421.16C790.22 421.16 749.55 421.16 708.89 421.16C711.08 415.16 713.27 409.16 715.46 403.16C753.94 403.16 792.41 403.16 830.89 403.16ZM206.45 438.32C224.79 438.32 243.13 438.32 261.47 438.32C261.47 444.44 261.47 450.56 261.47 456.68C243.13 456.68 224.79 456.68 206.45 456.68C206.45 450.56 206.45 444.44 206.45 438.32ZM353.63 438.32C371.97 438.32 390.31 438.32 408.66 438.32C408.66 444.44 408.66 450.56 408.66 456.67C390.31 456.67 371.97 456.67 353.63 456.67C353.63 450.56 353.63 444.44 353.63 438.32ZM464.02 438.32C483.58 438.32 503.14 438.32 522.7 438.32C523.17 444.38 521.7 450.94 519.81 456.68C501.21 456.68 482.62 456.68 464.02 456.68C464.02 450.56 464.02 444.44 464.02 438.32ZM666.21 438.31C668.34 444.44 670.47 450.56 672.6 456.69C639.85 456.69 607.09 456.69 574.34 456.69C574.34 450.56 574.34 444.44 574.34 438.31C604.96 438.31 635.59 438.31 666.21 438.31ZM702.74 438.31C733.52 438.31 764.31 438.31 795.09 438.31C795.09 444.44 795.09 450.56 795.09 456.68C762.31 456.68 729.54 456.68 696.76 456.68C698.75 450.56 700.75 444.44 702.74 438.31ZM260.73 473.5C262.26 478.99 262.03 486.34 260.93 491.96C242.77 491.96 224.6 491.96 206.44 491.96C206.44 485.81 206.44 479.65 206.44 473.5C224.54 473.5 242.63 473.5 260.73 473.5ZM511.44 474.43C508.32 479.32 500.49 489.75 494.91 491.67C491.64 492.79 487 491.97 483.56 491.97C475.04 491.97 466.51 491.97 457.99 491.97C435.46 491.97 412.94 491.97 390.41 491.97C378.21 491.97 365.81 492.6 353.65 491.78C353.65 485.87 353.65 479.96 353.65 474.04C357.78 472.99 362.38 473.49 366.67 473.49C374.89 473.49 383.11 473.49 391.32 473.49C417.81 473.49 444.29 473.49 470.78 473.49C480.21 473.49 489.65 473.49 499.09 473.49C502.92 473.49 508.23 472.54 511.44 474.43ZM679 473.5C680.82 478.6 682.65 483.7 684.47 488.8C686.61 483.76 688.74 478.72 690.87 473.68C698.96 472.88 707.39 473.49 715.53 473.49C731.05 473.49 746.58 473.49 762.1 473.49C769.74 473.49 788.91 472.01 795.07 474.21C795.07 480.13 795.07 486.04 795.07 491.96C776.65 491.96 758.23 491.96 739.81 491.96C739.81 487.2 739.81 482.45 739.81 477.7C737.85 482.45 735.88 487.21 733.92 491.96C701 491.96 668.08 491.96 635.16 491.96C633.64 487.44 632.12 482.91 630.59 478.39C628.43 481.92 629.87 487.73 628.98 491.96C610.78 491.96 592.58 491.96 574.38 491.96C574.38 485.81 574.38 479.65 574.38 473.5C609.25 473.5 644.12 473.5 679 473.5ZM261.47 508.87C261.47 514.91 261.47 520.96 261.47 527C243.11 527 224.75 527 206.4 527C206.4 520.96 206.4 514.91 206.4 508.87C224.75 508.87 243.11 508.87 261.47 508.87ZM511.75 527.02C459.04 527.02 406.33 527.02 353.62 527.02C353.62 521.06 353.62 515.09 353.62 509.13C364.23 508.15 375.18 508.85 385.84 508.85C405.94 508.85 426.03 508.85 446.12 508.85C457.08 508.85 468.04 508.85 479 508.85C483.76 508.85 489.72 507.88 494.36 508.97C499.93 510.29 508.83 522.28 511.75 527.02ZM629.56 508.87C629.56 514.91 629.56 520.96 629.56 527C611.15 527 592.74 527 574.33 527C574.33 520.96 574.33 514.91 574.33 508.87C592.74 508.87 611.15 508.87 629.56 508.87ZM727.77 508.86C725.82 514.91 723.87 520.96 721.92 527.02C696.96 527.02 671.99 527.02 647.03 527.02C645.15 520.96 643.27 514.91 641.39 508.86C670.19 508.86 698.98 508.86 727.77 508.86ZM795.08 508.87C795.08 514.92 795.08 520.97 795.08 527.01C776.69 527.01 758.3 527.01 739.9 527.01C739.9 520.97 739.9 514.92 739.9 508.87C758.3 508.87 776.69 508.87 795.08 508.87ZM261.46 544.13C261.46 550.22 261.46 556.31 261.46 562.4C243.11 562.4 224.76 562.4 206.41 562.4C206.41 556.31 206.41 550.22 206.41 544.13C224.76 544.13 243.11 544.13 261.46 544.13ZM353.64 544.12C371.98 544.12 390.32 544.12 408.66 544.12C408.66 550.22 408.66 556.31 408.66 562.41C390.32 562.41 371.98 562.41 353.64 562.41C353.64 556.31 353.64 550.22 353.64 544.12ZM464.02 544.12C482.68 544.12 501.34 544.12 520 544.12C520.94 549.91 521.89 555.71 522.83 561.5C517.97 563.81 510.04 562.42 504.57 562.42C491.07 562.42 477.5 562.85 464.02 562.3C464.02 556.24 464.02 550.18 464.02 544.12ZM629.56 544.13C629.56 550.22 629.56 556.31 629.56 562.4C611.15 562.4 592.75 562.4 574.34 562.4C574.34 556.31 574.34 550.22 574.34 544.13C592.75 544.13 611.15 544.13 629.56 544.13ZM716.15 544.13C714.11 550.22 712.08 556.31 710.05 562.4C693.19 562.4 676.34 562.4 659.48 562.4C657.37 556.31 655.26 550.22 653.14 544.13C674.14 544.13 695.15 544.13 716.15 544.13ZM739.91 544.12C758.3 544.12 776.69 544.12 795.08 544.12C795.08 550.21 795.08 556.31 795.08 562.4C776.69 562.4 758.3 562.4 739.91 562.4C739.91 556.31 739.91 550.21 739.91 544.12ZM298.38 579.08C298.38 585.05 298.38 591.01 298.38 596.98C293.07 598.28 287.24 597.7 281.74 597.7C271.99 597.7 262.25 597.7 252.51 597.7C234.86 597.7 217.2 597.7 199.54 597.7C189.7 597.7 179.73 598.16 169.92 597.48C169.92 591.34 169.92 585.21 169.92 579.08C212.74 579.08 255.56 579.08 298.38 579.08ZM520.93 579.08C520.11 585.74 517.15 591.58 514.61 597.7C448.71 597.7 382.81 597.7 316.9 597.7C316.9 591.49 316.9 585.28 316.9 579.08C384.91 579.08 452.92 579.08 520.93 579.08ZM629.38 579.08C629.8 585 630.47 592.05 628.77 597.7C598.63 597.7 568.49 597.7 538.36 597.7C536.6 592.07 537.34 585.02 537.7 579.08C568.26 579.08 598.82 579.08 629.38 579.08ZM704.12 579.1C702.14 585.29 700.16 591.48 698.17 597.67C689.35 597.67 680.52 597.67 671.69 597.67C669.5 591.48 667.3 585.29 665.11 579.1C678.11 579.1 691.12 579.1 704.12 579.1ZM830.89 579.08C830.89 585.28 830.89 591.49 830.89 597.69C800.56 597.69 770.23 597.69 739.89 597.69C739.89 591.49 739.89 585.28 739.89 579.08C770.23 579.08 800.56 579.08 830.89 579.08ZM169.94 614.58C212.75 614.58 255.56 614.58 298.37 614.58C298.37 620.71 298.37 626.84 298.37 632.96C255.56 632.96 212.75 632.96 169.94 632.96C169.94 626.84 169.94 620.71 169.94 614.58ZM316.9 614.58C377.96 614.58 439.03 614.58 500.1 614.58C498.05 618.38 493.3 621.18 489.52 623.31C479.86 628.77 469.15 632.46 457.99 632.92C427.05 634.18 395.81 632.97 364.84 632.97C354.49 632.97 344.14 632.97 333.79 632.97C328.3 632.97 322.18 633.68 316.9 632.42C316.9 626.47 316.9 620.52 316.9 614.58ZM629.58 614.59C629.58 620.71 629.58 626.83 629.58 632.95C598.89 632.95 568.2 632.95 537.52 632.95C537.52 626.83 537.52 620.71 537.52 614.59C568.2 614.59 598.89 614.59 629.58 614.59ZM691.78 614.65C689.65 620.75 687.52 626.86 685.39 632.97C684.45 632.66 684.03 632.96 683.22 632.25C682.27 631.42 681.91 628.81 681.52 627.64C680.1 623.34 678.24 619.12 677.65 614.65C682.36 614.65 687.07 614.65 691.78 614.65ZM739.91 614.58C770.24 614.58 800.56 614.58 830.89 614.58C830.89 620.71 830.89 626.84 830.89 632.96C800.56 632.96 770.24 632.96 739.91 632.96C739.91 626.84 739.91 620.71 739.91 614.58Z" fill="#4181c1" fill-rule="evenodd" stroke="#4181c1" stroke-width="0.25" stroke-linejoin="round"/>
</svg>
